<?xml version="1.0" encoding="utf-8"?>
<!-- Generator: Adobe Illustrator 19.0.0, SVG Export Plug-In . SVG Version: 6.00 Build 0)  -->
<svg version="1.1" id="图层_1" xmlns="http://www.w3.org/2000/svg" xmlns:xlink="http://www.w3.org/1999/xlink" x="0px" y="0px"
	 viewBox="-219 221 200 200" style="enable-background:new -219 221 200 200;" xml:space="preserve">
<style type="text/css">
	.st0{opacity:0.7;fill:#FFFFFF;}
</style>
<path class="st0" d="M-40.1,408.7H-198c-11.6,0-21-9.4-21-20.9V262.1c0-11.5,9.4-20.9,21-20.9h157.8c11.6,0,21,9.4,21,20.9V283
	c0,2.5-1.7,4.6-4.1,5.1c-6,2.4-60.2,32.9-93.3,51.8c-1.7,1-3.8,0.9-5.4-0.1l-57.9-36.6c-2.5-1.6-3.2-4.8-1.6-7.2
	c1.6-2.4,4.8-3.2,7.3-1.6l55.2,34.9c60-34.2,81.3-45.7,89.3-49.5v-17.6c0-5.8-4.7-10.5-10.5-10.5l-157.8,0
	c-5.8,0-10.5,4.7-10.5,10.5v125.6c0,5.8,4.7,10.5,10.5,10.5h157.8c5.8,0,10.5-4.7,10.5-10.5v-62.8c0-2.9,2.4-5.2,5.3-5.2
	s5.3,2.3,5.3,5.2v62.8C-19.1,399.3-28.5,408.7-40.1,408.7L-40.1,408.7L-40.1,408.7z"/>
</svg>
