<?xml version="1.0" encoding="utf-8"?>
<!-- Generator: Adobe Illustrator 19.0.0, SVG Export Plug-In . SVG Version: 6.00 Build 0)  -->
<svg version="1.1" id="图层_1" xmlns="http://www.w3.org/2000/svg" xmlns:xlink="http://www.w3.org/1999/xlink" x="0px" y="0px"
	 viewBox="-219 221 200 200" style="enable-background:new -219 221 200 200;" xml:space="preserve">
<style type="text/css">
	.st0{opacity:0.7;fill:#FFFFFF;}
</style>
<path class="st0" d="M-116.3,233.1c-18.6,0-35.5,9.2-47.9,24.5c-12.8,15.3-20.8,37-21.3,60.9c0,1.1-0.3,2.2-0.8,3.1l0,0
	c-0.8,1.4-2,3.1-2.8,4.7c-0.8,1.7-2,3.3-2.8,5.3c-3.9,8.1-6.1,16.4-6.9,23.4c-0.8,5.6-0.3,9.7,1.1,11.1l0,0c0,0,0-0.3,0.3-0.3
	c1.4-0.6,3.3-2,5.2-3.9c1.1-1.1,2.5-2.8,3.6-4.4c1.6-2.5,5.2-3.1,7.8-1.4c0.8,0.8,1.6,1.7,2,2.5l0,0c1.4,3.6,3.1,7.2,4.7,10.6
	c1.6,3.3,3.6,6.7,5.8,9.7c1.6,2.5,1.1,6.1-1.4,7.8c-0.5,0.3-1.1,0.6-1.6,0.8c-3.9,1.4-6.9,3.1-9.2,5.3c-1.4,1.4-2.2,2.8-2.2,3.9
	c0,2.8,3.3,5.6,8.6,8.1c6.7,3.1,15.8,5,26.3,5c6.1,0,11.6-0.6,16.9-1.7c5-1.1,9.4-2.8,12.5-4.7c2-1.1,4.2-1.1,5.8,0
	c3.3,2,7.5,3.6,12.5,4.7c5,1.1,10.5,1.7,16.9,1.7c10.3,0,19.7-2,26.3-5c5.2-2.5,8.6-5.3,8.6-8.1c0-1.1-0.8-2.5-2.2-3.9
	c-2.2-2-5.6-3.9-9.4-5.3c-3.1-1.1-4.4-4.2-3.3-7.2c0.3-0.6,0.3-0.8,0.5-1.1l0,0c2.2-3.1,3.9-6.4,5.8-9.7c2-3.3,3.3-7,4.7-10.6
	c1.1-3.1,4.4-4.4,7.2-3.3c1.1,0.6,2.2,1.1,2.8,2.2c1.1,1.4,2.2,2.8,3.3,3.9c2,2.2,3.6,3.6,5.2,4.2c0.3,0.3,0.3,0.3,0.3,0.3l0,0
	c1.4-1.4,1.6-5.6,1.1-11.1c-0.8-7-3.1-15-6.9-23.1c0,0,0-0.3-0.3-0.3c-0.8-1.7-1.6-3.3-2.5-5c-1.1-1.7-2-3.3-2.8-4.7
	c-0.5-1.1-0.8-2.2-0.8-3.1c-0.5-23.9-8.6-45.3-21.3-60.9C-80.8,242.6-97.8,233.1-116.3,233.1L-116.3,233.1z M-172.8,250.1
	c14.4-17.8,34.4-28.6,56.5-28.6s42.1,10.8,56.5,28.6c13.9,17,23,40.3,23.8,66.5c0.8,1.4,1.6,2.8,2.5,4.2c0.8,1.7,2,3.6,2.8,5.6
	c0,0,0,0.3,0.3,0.3c4.4,9.2,7.2,18.6,8,26.7c1.1,9.2-0.3,16.7-4.4,20.6c-0.3,0.3-0.8,0.6-1.1,0.8c-3.3,2.5-7.2,2.5-11.1,1.1
	c-2.5-1.1-5-2.8-7.2-5c-0.5,1.1-1.1,2.2-1.6,3.1c-0.8,1.7-2,3.6-2.8,5.3c2.8,1.4,5,3.1,6.9,5c3.6,3.6,5.8,7.8,5.8,12.2
	c0,7.5-5.8,13.9-15,18.3c-8,3.6-18.8,5.9-30.8,5.9c-6.9,0-13.6-0.8-19.1-2.2c-5-1.1-9.2-2.5-13-4.4c-3.6,2-8,3.3-13,4.4
	c-5.8,1.4-12.5,2.2-19.4,2.2c-11.9,0-22.7-2.2-30.8-5.9c-9.4-4.2-15-10.6-15-18.3c0-4.4,2.2-8.6,5.8-12.2c2-1.7,4.2-3.3,6.9-5
	c-1.1-1.7-2-3.3-2.8-5.3c-0.5-1.1-1.1-2.2-1.6-3.3c-2.5,2.2-5,3.9-7.2,5c-4.2,1.7-7.8,1.4-11.1-1.1c-0.3-0.3-0.8-0.6-1.1-0.8
	c-4.2-3.9-5.6-11.4-4.4-20.6c0.8-8.1,3.6-17.5,8-26.7c1.1-2.2,2-4.2,3.1-5.9c0.8-1.4,1.6-2.8,2.5-3.9
	C-195,290.7-184.2,264.2-172.8,250.1z M-198,365.7L-198,365.7L-198,365.7z M-34.6,365.7L-34.6,365.7L-34.6,365.7z"/>
</svg>
